<svg width="120" height="96" viewBox="0 0 120 96" fill="none" xmlns="http://www.w3.org/2000/svg">
<mask id="mask0_570_11917" style="mask-type:alpha" maskUnits="userSpaceOnUse" x="-1" y="0" width="121" height="96">
<path d="M120 0H-1V95.9596H120V0Z" fill="#C4C4C4"/>
</mask>
<g mask="url(#mask0_570_11917)">
<path d="M26.69 51.8996C32.5939 51.8996 37.38 47.0652 37.38 41.1017C37.38 35.1381 32.5939 30.3037 26.69 30.3037C20.7861 30.3037 16 35.1381 16 41.1017C16 47.0652 20.7861 51.8996 26.69 51.8996Z" fill="white"/>
<path d="M26.6896 51.2532C32.2401 51.2532 36.7396 46.7082 36.7396 41.1017C36.7396 35.4951 32.2401 30.9502 26.6896 30.9502C21.1392 30.9502 16.6396 35.4951 16.6396 41.1017C16.6396 46.7082 21.1392 51.2532 26.6896 51.2532Z" fill="white" stroke="black" stroke-width="1.4413"/>
<path d="M26.6197 48.7987C30.8447 48.7987 34.2697 45.3391 34.2697 41.0715C34.2697 36.8038 30.8447 33.3442 26.6197 33.3442C22.3947 33.3442 18.9697 36.8038 18.9697 41.0715C18.9697 45.3391 22.3947 48.7987 26.6197 48.7987Z" fill="#E9E9E9"/>
<path d="M25.8247 35.8517C25.7698 35.8178 25.6984 35.8288 25.6562 35.8776L25.6547 35.8794L25.6644 35.8682C25.6599 35.8733 25.6386 35.8979 25.6298 35.9079C25.6122 35.928 25.586 35.9575 25.5521 35.9954C25.4842 36.0711 25.3853 36.1799 25.2616 36.3116C25.0139 36.5752 24.6671 36.9299 24.2705 37.2953C23.8736 37.661 23.4286 38.0355 22.9844 38.3396C22.5382 38.6451 22.1025 38.8727 21.7231 38.955C21.6603 38.9686 21.6166 39.0257 21.6199 39.0899L21.7941 39.085C21.663 39.0917 21.6199 39.0899 21.6199 39.0899L21.6199 39.0915L21.6202 39.0957C21.6204 39.0994 21.6207 39.1047 21.6211 39.1116C21.622 39.1254 21.6234 39.1457 21.6253 39.1721C21.6293 39.2247 21.6358 39.3015 21.6459 39.399C21.6661 39.594 21.7008 39.8719 21.7588 40.2052C21.8748 40.8714 22.0845 41.7619 22.4599 42.6553C23.2099 44.4405 24.6368 46.2658 27.3188 46.2849L27.3399 46.285L27.36 46.2785C29.9127 45.456 30.7265 43.2868 30.9066 41.3588C30.9968 40.394 30.9297 39.4815 30.8406 38.8113C30.796 38.4759 30.7457 38.2003 30.7065 38.0083C30.6869 37.9123 30.6701 37.8371 30.6581 37.7856C30.6521 37.7599 30.6473 37.7401 30.644 37.7267C30.6423 37.7199 30.641 37.7148 30.6401 37.7112L30.6391 37.7072L30.6388 37.706C30.6388 37.706 30.43 37.73 30.303 37.763L30.6388 37.706C30.6226 37.6438 30.5637 37.602 30.4997 37.6078C30.1131 37.6431 29.6292 37.5567 29.1119 37.3991C28.597 37.2422 28.0602 37.0184 27.5718 36.7886C27.0839 36.559 26.6467 36.3245 26.3314 36.1474C26.1738 36.0589 26.0468 35.9848 25.9594 35.9329C25.9157 35.9069 25.8818 35.8866 25.859 35.8727C25.8476 35.8658 25.8389 35.8605 25.8332 35.8569L25.8267 35.853L25.8247 35.8517Z" fill="white"/>
<path d="M21.6199 39.0899V39.0899C21.6166 39.0257 21.6603 38.9686 21.7231 38.955V38.955C22.1025 38.8727 22.5382 38.6451 22.9844 38.3396C23.4286 38.0355 23.8736 37.661 24.2705 37.2953C24.6671 36.9299 25.0139 36.5752 25.2616 36.3116C25.3853 36.1799 25.4842 36.0711 25.5521 35.9954C25.586 35.9575 25.6122 35.928 25.6298 35.9079C25.6386 35.8979 25.6599 35.8733 25.6644 35.8682L25.6547 35.8794L25.6562 35.8776V35.8776C25.6984 35.8288 25.7698 35.8178 25.8247 35.8517L25.8267 35.853L25.8332 35.8569C25.8389 35.8605 25.8476 35.8658 25.859 35.8727C25.8818 35.8866 25.9157 35.9069 25.9594 35.9329C26.0468 35.9848 26.1738 36.0589 26.3314 36.1474C26.6467 36.3245 27.0839 36.559 27.5718 36.7886C28.0602 37.0184 28.597 37.2422 29.1119 37.3991C29.6292 37.5567 30.1131 37.6431 30.4997 37.6078V37.6078C30.5637 37.602 30.6226 37.6438 30.6388 37.706V37.706M21.6199 39.0899L21.7941 39.085C21.663 39.0917 21.6199 39.0899 21.6199 39.0899ZM21.6199 39.0899L21.6199 39.0915L21.6202 39.0957C21.6204 39.0994 21.6207 39.1047 21.6211 39.1116C21.622 39.1254 21.6234 39.1457 21.6253 39.1721C21.6293 39.2247 21.6358 39.3015 21.6459 39.399C21.6661 39.594 21.7008 39.8719 21.7588 40.2052C21.8748 40.8714 22.0845 41.7619 22.4599 42.6553C23.2099 44.4405 24.6368 46.2658 27.3188 46.2849L27.3399 46.285L27.36 46.2785C29.9127 45.456 30.7265 43.2868 30.9066 41.3588C30.9968 40.394 30.9297 39.4815 30.8406 38.8113C30.796 38.4759 30.7457 38.2003 30.7065 38.0083C30.6869 37.9123 30.6701 37.8371 30.6581 37.7856C30.6521 37.7599 30.6473 37.7401 30.644 37.7267C30.6423 37.7199 30.641 37.7148 30.6401 37.7112L30.6391 37.7072L30.6388 37.706M30.6388 37.706C30.6388 37.706 30.43 37.73 30.303 37.763L30.6388 37.706Z" stroke="black" stroke-width="0.707679"/>
<path fill-rule="evenodd" clip-rule="evenodd" d="M22.0873 40.1386C22.3416 41.7946 23.4946 45.9382 27.3059 45.9321C28.7984 45.4655 29.4285 44.4747 29.8355 43.7539C25.0543 44.0763 24.005 41.3899 22.6235 39.1331C22.6648 39.1271 22.3949 39.1436 21.9817 39.2317C21.9817 39.2317 22.0168 39.6791 22.0873 40.1386Z" fill="#E9E9E9"/>
<path d="M25.1954 41.3221L26.6226 42.6117L28.2495 39.596" stroke="black" stroke-width="0.707679" stroke-linecap="round" stroke-linejoin="round"/>
<path d="M83.83 26.9301C89.8112 26.9301 94.66 22.0324 94.66 15.9907C94.66 9.94896 89.8112 5.05127 83.83 5.05127C77.8488 5.05127 73 9.94896 73 15.9907C73 22.0324 77.8488 26.9301 83.83 26.9301Z" fill="#FFCC00" stroke="black" stroke-width="1.4413"/>
<path d="M84.7 10.334L84.46 11.8996" stroke="black" stroke-width="1.4413" stroke-linecap="round" stroke-linejoin="round"/>
<path d="M83.2498 19.728L83.0098 21.2936" stroke="black" stroke-width="1.4413" stroke-linecap="round" stroke-linejoin="round"/>
<path d="M80.9199 19.3643L84.4099 19.9097C84.9199 19.9905 85.4499 19.8592 85.8699 19.5562C86.2899 19.2431 86.5699 18.7784 86.6499 18.2633C86.7299 17.7481 86.5999 17.2128 86.2999 16.7885C85.9899 16.3643 85.5299 16.0814 85.0199 16.0006L82.6899 15.637C82.1799 15.5562 81.7099 15.2734 81.4099 14.8491C81.0999 14.4249 80.9799 13.8895 81.0599 13.3744C81.1399 12.8592 81.4199 12.3845 81.8399 12.0814C82.2599 11.7683 82.7899 11.6471 83.2999 11.7279L86.7899 12.2734" stroke="black" stroke-width="1.4413" stroke-linecap="round" stroke-linejoin="round"/>
<path d="M87.2 8.38101C87.157 8.30293 87.0636 8.26765 86.9797 8.29775L86.9766 8.29884L86.9959 8.29192C86.9871 8.29506 86.9447 8.31015 86.9273 8.31625C86.8925 8.32841 86.841 8.34626 86.7744 8.36878C86.6414 8.41383 86.4485 8.47756 86.2102 8.55201C85.7333 8.70092 85.0752 8.89233 84.35 9.06266C83.6242 9.23313 82.8346 9.38163 82.0937 9.44596C81.3494 9.51057 80.6707 9.48861 80.1584 9.33C80.0736 9.30374 79.9822 9.34279 79.9426 9.42222L80.1555 9.5347C79.9933 9.45373 79.9426 9.42222 79.9426 9.42222L79.9416 9.42426L79.939 9.42948C79.9368 9.43399 79.9335 9.4406 79.9294 9.44923C79.921 9.46647 79.9089 9.49182 79.8934 9.52485C79.8624 9.59091 79.8181 9.68769 79.764 9.81186C79.656 10.0601 79.5091 10.4181 79.3526 10.8585C79.0399 11.7387 78.6876 12.9525 78.5327 14.2823C78.2231 16.9392 78.7007 20.104 81.9144 21.9478L81.9397 21.9623L81.9683 21.9682C85.598 22.7116 88.0498 20.6542 89.5754 18.4569C90.3389 17.3573 90.8777 16.214 91.2255 15.3471C91.3996 14.9132 91.5262 14.5476 91.6094 14.29C91.651 14.1611 91.6818 14.0592 91.7022 13.9892C91.7125 13.9541 91.7201 13.9271 91.7253 13.9086C91.7279 13.8994 91.7298 13.8923 91.7311 13.8874L91.7326 13.8818L91.7331 13.8803C91.7331 13.8803 91.4656 13.7674 91.2904 13.7208L91.7331 13.8803C91.7559 13.7945 91.7134 13.7041 91.6324 13.6677C91.1433 13.4477 90.6198 13.0152 90.1044 12.4743C89.5914 11.936 89.0975 11.3023 88.6659 10.6943C88.2348 10.0868 87.8679 9.5079 87.6088 9.08074C87.4793 8.86724 87.3769 8.69187 87.3069 8.57008C87.2719 8.50918 87.2451 8.4617 87.227 8.42954C87.218 8.41345 87.2112 8.40121 87.2066 8.39304L87.2015 8.38387L87.2 8.38101Z" fill="white"/>
<path d="M79.9426 9.42222V9.42222C79.9822 9.34279 80.0736 9.30374 80.1584 9.33V9.33C80.6707 9.48861 81.3494 9.51057 82.0937 9.44596C82.8346 9.38163 83.6242 9.23313 84.35 9.06266C85.0752 8.89233 85.7333 8.70092 86.2102 8.55201C86.4485 8.47756 86.6414 8.41383 86.7744 8.36878C86.841 8.34626 86.8925 8.32841 86.9273 8.31625C86.9447 8.31015 86.9871 8.29506 86.9959 8.29192L86.9766 8.29884L86.9797 8.29775V8.29775C87.0636 8.26765 87.157 8.30293 87.2 8.38101L87.2015 8.38387L87.2066 8.39304C87.2112 8.40121 87.218 8.41345 87.227 8.42954C87.2451 8.4617 87.2719 8.50918 87.3069 8.57008C87.3769 8.69187 87.4793 8.86724 87.6088 9.08074C87.8679 9.5079 88.2348 10.0868 88.6659 10.6943C89.0975 11.3023 89.5914 11.936 90.1044 12.4743C90.6198 13.0152 91.1433 13.4477 91.6324 13.6677V13.6677C91.7134 13.7041 91.7559 13.7945 91.7331 13.8803V13.8803M79.9426 9.42222L80.1555 9.5347C79.9933 9.45373 79.9426 9.42222 79.9426 9.42222ZM79.9426 9.42222L79.9416 9.42426L79.939 9.42948C79.9368 9.43399 79.9335 9.4406 79.9294 9.44923C79.921 9.46647 79.9089 9.49182 79.8934 9.52485C79.8624 9.59091 79.8181 9.68769 79.764 9.81186C79.656 10.0601 79.5091 10.4181 79.3526 10.8585C79.0399 11.7387 78.6876 12.9525 78.5327 14.2823C78.2231 16.9392 78.7007 20.104 81.9144 21.9478L81.9397 21.9623L81.9683 21.9682C85.598 22.7116 88.0498 20.6542 89.5754 18.4569C90.3389 17.3573 90.8777 16.214 91.2255 15.3471C91.3996 14.9132 91.5262 14.5476 91.6094 14.29C91.651 14.1611 91.6818 14.0592 91.7022 13.9892C91.7125 13.9541 91.7201 13.9271 91.7253 13.9086C91.7279 13.8994 91.7298 13.8923 91.7311 13.8874L91.7326 13.8818L91.7331 13.8803M91.7331 13.8803C91.7331 13.8803 91.4656 13.7674 91.2904 13.7208L91.7331 13.8803Z" stroke="black" stroke-width="0.977632"/>
<path fill-rule="evenodd" clip-rule="evenodd" d="M79.7929 11.0015C78.9745 13.1666 77.5487 18.9346 82.1384 21.5148C84.2507 21.9667 85.6815 21.2025 86.6605 20.6115C80.6893 17.7535 81.2507 13.809 81.1206 10.1559C81.1744 10.1767 80.8384 10.0132 80.2815 9.83873C80.2815 9.83873 80.02 10.4009 79.7929 11.0015Z" fill="#E9E9E9"/>
<path d="M82.7289 14.535L83.5705 17.0556L87.5753 14.5319" stroke="black" stroke-width="0.977632" stroke-linecap="round" stroke-linejoin="round"/>
<path d="M35.1802 79.7979H15.9102V85.3635H35.1802V79.7979Z" fill="white" stroke="black" stroke-width="1.4413"/>
<path d="M28.5998 85.313H8.75977V90.8787H28.5998V85.313Z" fill="#E9E9E9" stroke="black" stroke-width="1.4413"/>
<path d="M35.1802 90.8784H15.9102V96.444H35.1802V90.8784Z" fill="#E9E9E9" stroke="black" stroke-width="1.4413"/>
<path d="M101.02 79.7979H81.75V85.3635H101.02V79.7979Z" fill="white" stroke="black" stroke-width="1.4413"/>
<path d="M103.589 85.313H84.3193V90.8787H103.589V85.313Z" fill="#E9E9E9" stroke="black" stroke-width="1.4413"/>
<path d="M111.44 90.8784H82.4902V96.444H111.44V90.8784Z" fill="#E9E9E9" stroke="black" stroke-width="1.4413"/>
<path d="M58.5 22.2233L58.0324 21.6758L58.032 21.6761L58.0302 21.6777L58.0225 21.6842L57.9907 21.7111C57.9624 21.7351 57.9199 21.771 57.8638 21.8181C57.7515 21.9122 57.5851 22.0509 57.3696 22.228C56.9386 22.5822 56.3117 23.0898 55.5308 23.7011C53.9683 24.9241 51.7924 26.5594 49.3374 28.2107C46.8804 29.8634 44.1554 31.5241 41.4936 32.8035C38.8192 34.0889 36.267 34.9605 34.1409 35.0908L33.5307 35.1282L33.4687 35.7365L34.185 35.8095C33.4687 35.7365 33.4687 35.7369 33.4686 35.7374L33.4684 35.7392L33.4678 35.7455L33.4656 35.7685C33.4636 35.7884 33.4609 35.8175 33.4575 35.8554C33.4507 35.9312 33.4412 36.0424 33.43 36.1869C33.4077 36.4758 33.379 36.8976 33.3526 37.4348C33.2999 38.5088 33.2567 40.0449 33.294 41.9011C33.3685 45.6101 33.7645 50.6143 35.0565 55.7718C37.6381 66.0772 43.857 77.1638 58.3857 79.4998L58.5 79.5182L58.6143 79.4998C73.143 77.1638 79.3619 66.0772 81.9436 55.7718C83.2355 50.6143 83.6315 45.6101 83.706 41.9011C83.7433 40.0449 83.7001 38.5088 83.6474 37.4348C83.621 36.8976 83.5923 36.4758 83.57 36.1869C83.5588 36.0424 83.5494 35.9312 83.5425 35.8554C83.5392 35.8175 83.5364 35.7884 83.5344 35.7685L83.5322 35.7455L83.5316 35.7392L83.5314 35.7374C83.5313 35.7369 83.5313 35.7365 82.815 35.8095L83.5313 35.7365L83.4693 35.1282L82.8591 35.0908C80.733 34.9605 78.1808 34.0889 75.5064 32.8035C72.8446 31.5241 70.1197 29.8634 67.6626 28.2107C65.2076 26.5594 63.0317 24.9241 61.4692 23.7011C60.6883 23.0898 60.0614 22.5822 59.6304 22.228C59.4149 22.0509 59.2485 21.9122 59.1362 21.8181C59.0801 21.771 59.0376 21.7351 59.0093 21.7111L58.9775 21.6842L58.9698 21.6777L58.968 21.6761L58.9676 21.6758L58.5 22.2233ZM58.5 22.2233L58.0324 21.6758L58.5 21.2764L58.9676 21.6758L58.5 22.2233Z" fill="white" stroke="black" stroke-width="1.44"/>
<path fill-rule="evenodd" clip-rule="evenodd" d="M34 40.1038V40.1089C34.0004 50.4079 36.4026 74.4836 58.5 78.001C67.5659 76.5579 72.5 72.0005 75.5 68.0005C47.5 65.5005 43.5 49.5005 37.5 34.5005C37 35.0005 36.6584 35.3013 34.185 35.4514C34.185 35.4514 34.0001 37.2468 34 40.1038Z" fill="#E9E9E9"/>
<path d="M51 50.8192L57.6667 59.001L69 44.001" stroke="black" stroke-width="3" stroke-linecap="round" stroke-linejoin="round"/>
<path d="M33.12 96.5755L35.8 99.9797C37.05 101.566 39.34 101.828 40.91 100.566L50.08 93.1917C51.65 91.929 51.91 89.6159 50.66 88.03L47.98 84.626C46.73 83.0401 44.44 82.7775 42.87 84.0401L33.7 91.4139C32.13 92.6765 31.87 94.9896 33.12 96.5755Z" fill="white" stroke="black" stroke-width="1.443" stroke-miterlimit="10"/>
<path d="M30.1602 73.1111L31.1202 64.0808C31.1202 64.0808 31.0302 61.2021 28.1202 60.5859C25.2102 59.9697 23.7902 63.3233 23.8002 64.0606L21.3602 79.1111C21.3602 79.1111 21.2602 80.2324 22.5602 81.7778L32.0502 92.7273L44.3702 82.8283L38.8902 75.8485C38.8902 75.8485 38.0102 74.6667 36.8902 74.4142C35.7702 74.1616 30.1602 73.1111 30.1602 73.1111C30.1602 73.1111 28.5802 72.8081 27.8402 74.0808C27.1002 75.3435 27.6802 77.3334 29.4702 77.6768L31.8002 78.1313" fill="white"/>
<path d="M30.1602 73.1111C30.1602 73.1111 28.5802 72.8081 27.8402 74.0808C27.1002 75.3435 27.6802 77.3334 29.4702 77.6768L31.8002 78.1313M30.1602 73.1111L31.1202 64.0808C31.1202 64.0808 31.0302 61.2021 28.1202 60.5859C25.2102 59.9697 23.7902 63.3233 23.8002 64.0606L21.3602 79.1111C21.3602 79.1111 21.2602 80.2324 22.5602 81.7778L32.0502 92.7273L44.3702 82.8283L38.8902 75.8485C38.8902 75.8485 38.0102 74.6667 36.8902 74.4142C35.7702 74.1616 30.1602 73.1111 30.1602 73.1111Z" stroke="black" stroke-width="1.443" stroke-miterlimit="10"/>
<path d="M83.0701 96.5755L80.3901 99.9797C79.1401 101.566 76.8501 101.828 75.2801 100.566L66.1101 93.1917C64.5401 91.929 64.2801 89.6159 65.5301 88.03L68.2101 84.626C69.4601 83.0401 71.7501 82.7775 73.3201 84.0401L82.4901 91.4139C84.0601 92.6765 84.3201 94.9896 83.0701 96.5755Z" fill="white" stroke="black" stroke-width="1.443" stroke-miterlimit="10"/>
<path d="M86.0293 73.1111L85.0693 64.0808C85.0693 64.0808 85.1593 61.2021 88.0693 60.5859C90.9793 59.9697 92.3993 63.3233 92.3893 64.0606L94.8293 79.1111C94.8293 79.1111 94.9293 80.2324 93.6293 81.7778L84.1393 92.7273L71.8193 82.8283L77.2993 75.8485C77.2993 75.8485 78.1793 74.6667 79.2993 74.4142C80.4193 74.1616 86.0293 73.1111 86.0293 73.1111C86.0293 73.1111 87.6093 72.8081 88.3493 74.0808C89.0893 75.3435 88.5093 77.3334 86.7193 77.6768L84.3893 78.1313" fill="white"/>
<path d="M86.0293 73.1111C86.0293 73.1111 87.6093 72.8081 88.3493 74.0808C89.0893 75.3435 88.5093 77.3334 86.7193 77.6768L84.3893 78.1313M86.0293 73.1111L85.0693 64.0808C85.0693 64.0808 85.1593 61.2021 88.0693 60.5859C90.9793 59.9697 92.3993 63.3233 92.3893 64.0606L94.8293 79.1111C94.8293 79.1111 94.9293 80.2324 93.6293 81.7778L84.1393 92.7273L71.8193 82.8283L77.2993 75.8485C77.2993 75.8485 78.1793 74.6667 79.2993 74.4142C80.4193 74.1616 86.0293 73.1111 86.0293 73.1111Z" stroke="black" stroke-width="1.443" stroke-miterlimit="10"/>
<path d="M1 95.9595H119" stroke="black" stroke-width="1.4413" stroke-linecap="round"/>
</g>
</svg>
