<svg width="120" height="99" viewBox="0 0 120 99" fill="none" xmlns="http://www.w3.org/2000/svg">
<path d="M33.1807 89.4785H13.2715V95.1691H33.1807V89.4785Z" fill="white" stroke="black" stroke-width="1.4413"/>
<path d="M27.9033 83.7891H7.99414V89.4797H27.9033V83.7891Z" fill="#E9E9E9" stroke="black" stroke-width="1.4413"/>
<rect x="87" y="69" width="17.996" height="5.1417" fill="white" stroke="black" stroke-width="1.44134"/>
<rect x="75.207" y="74.1406" width="17.996" height="5.1417" fill="white" stroke="black" stroke-width="1.44134"/>
<rect x="75.207" y="79.2852" width="17.996" height="5.1417" fill="white" stroke="black" stroke-width="1.44134"/>
<rect x="73" y="84.4219" width="17.996" height="5.1417" fill="#E9E9E9" stroke="black" stroke-width="1.44134"/>
<rect x="75.207" y="89.5703" width="17.996" height="5.1417" fill="#E9E9E9" stroke="black" stroke-width="1.44134"/>
<rect x="91" y="74.1406" width="17.996" height="5.1417" fill="#E9E9E9" stroke="black" stroke-width="1.44134"/>
<rect x="93.1992" y="79.2852" width="17.996" height="5.1417" fill="#E9E9E9" stroke="black" stroke-width="1.44134"/>
<rect x="91" y="84.4219" width="17.996" height="5.1417" fill="#E9E9E9" stroke="black" stroke-width="1.44134"/>
<rect x="93.1992" y="89.5703" width="17.996" height="5.1417" fill="#E9E9E9" stroke="black" stroke-width="1.44134"/>
<path d="M96.669 60.3604C103.114 60.3604 108.338 55.131 108.338 48.6802C108.338 42.2294 103.114 37 96.669 37C90.2244 37 85 42.2294 85 48.6802C85 55.131 90.2244 60.3604 96.669 60.3604Z" fill="white"/>
<path d="M96.6695 59.6626C102.729 59.6626 107.642 54.7455 107.642 48.68C107.642 42.6144 102.729 37.6973 96.6695 37.6973C90.6097 37.6973 85.6973 42.6144 85.6973 48.68C85.6973 54.7455 90.6097 59.6626 96.6695 59.6626Z" fill="white" stroke="black" stroke-width="1.4413"/>
<path d="M96.6028 56.9735C101.215 56.9735 104.954 53.2311 104.954 48.6147C104.954 43.9982 101.215 40.2559 96.6028 40.2559C91.9907 40.2559 88.252 43.9982 88.252 48.6147C88.252 53.2311 91.9907 56.9735 96.6028 56.9735Z" fill="#E9E9E9"/>
<path d="M96.7031 43.9746V45.2921" stroke="black" stroke-width="1.2872" stroke-linecap="round" stroke-linejoin="round"/>
<path d="M96.7031 51.8457V53.1632" stroke="black" stroke-width="1.2872" stroke-linecap="round" stroke-linejoin="round"/>
<path d="M94.7327 51.8472H97.6859C98.1172 51.8472 98.5375 51.67 98.8472 51.3711C99.1569 51.0611 99.3228 50.6515 99.3228 50.2086C99.3228 49.7768 99.1459 49.3561 98.8472 49.0461C98.5375 48.7361 98.1172 48.5701 97.6859 48.5701H95.7171C95.2857 48.5701 94.8654 48.3929 94.5557 48.094C94.246 47.784 94.0801 47.3744 94.0801 46.9315C94.0801 46.4997 94.257 46.079 94.5557 45.769C94.8654 45.459 95.2857 45.293 95.7171 45.293H98.6703" stroke="black" stroke-width="1.2872" stroke-linecap="round" stroke-linejoin="round"/>
<path d="M56.0586 91.4082C70.9379 91.4082 83 79.3461 83 64.4668C83 49.5875 70.9379 37.5254 56.0586 37.5254C41.1793 37.5254 29.1172 49.5875 29.1172 64.4668C29.1172 79.3461 41.1793 91.4082 56.0586 91.4082Z" fill="white" stroke="black" stroke-width="1.5"/>
<path fill-rule="evenodd" clip-rule="evenodd" d="M73.1573 84.5064C68.6217 88.2162 62.8249 90.4418 56.5082 90.4418C41.9749 90.4418 30.1934 78.6603 30.1934 64.127C30.1934 60.3612 30.9844 56.7802 32.4093 53.541C38.2986 68.1449 45.2911 82.051 73.1573 84.5064Z" fill="#E9E9E9"/>
<path d="M54.4746 50.2051L54.4746 66.1811L65.0399 71.3356" stroke="black" stroke-width="3" stroke-linecap="round" stroke-linejoin="round"/>
<path d="M55.132 31.4397C52.4352 31.3165 49.9093 30.5056 48.0308 29.1796C45.9885 27.738 44.9238 25.8464 44.9238 23.9537V21.2645C47.6206 21.3877 50.1465 22.1986 52.025 23.5246C54.0672 24.9662 55.132 26.8578 55.132 28.7505V31.4397Z" fill="#E9E9E9" stroke="black" stroke-width="1.44134" stroke-miterlimit="10"/>
<path d="M60.6091 18.1674C59.3007 19.2746 57.5615 19.9639 55.6992 20.1061V16.2949C55.6992 14.5939 56.4968 12.9326 57.9691 11.6868C59.2776 10.5796 61.0167 9.89032 62.8791 9.74811V13.5593C62.8791 15.2604 62.0815 16.9216 60.6091 18.1674Z" fill="black" stroke="black" stroke-width="1.44134" stroke-miterlimit="10"/>
<path fill-rule="evenodd" clip-rule="evenodd" d="M54.9785 37.5257L54.9785 20.2832L56.5303 20.2832L56.5303 37.5257L54.9785 37.5257Z" fill="black"/>
<rect x="44.6289" y="91.0722" width="22.416" height="3.6347" rx="1.81735" fill="black" stroke="black" stroke-width="1.44134"/>
<path d="M1 95L118 95" stroke="black" stroke-width="1.4413" stroke-linecap="round"/>
<path d="M28.9879 88.8813C35.5181 88.8813 40.8118 83.5825 40.8118 77.0461C40.8118 70.5097 35.5181 65.2109 28.9879 65.2109C22.4578 65.2109 17.1641 70.5097 17.1641 77.0461C17.1641 83.5825 22.4578 88.8813 28.9879 88.8813Z" fill="#FFCC00" stroke="black" stroke-width="1.4413"/>
<path d="M27.4727 71.0352L27.893 72.6958" stroke="black" stroke-width="1.4413" stroke-linecap="round" stroke-linejoin="round"/>
<path d="M29.9941 81.0098L30.4144 82.6705" stroke="black" stroke-width="1.4413" stroke-linecap="round" stroke-linejoin="round"/>
<path d="M27.4956 81.6404L31.2341 80.6994C31.7871 80.5555 32.2627 80.2122 32.5503 79.7251C32.8379 79.238 32.9264 78.6512 32.7937 78.0976C32.6499 77.5441 32.307 77.068 31.8203 76.7802C31.3337 76.4923 30.7474 76.4037 30.1944 76.5477L27.7058 77.1787C27.1527 77.3226 26.5665 77.2341 26.0798 76.9462C25.5932 76.6584 25.2392 76.1823 25.1065 75.6287C24.9627 75.0752 25.0512 74.4884 25.3498 74.0013C25.6374 73.5141 26.113 73.1599 26.666 73.027L30.4046 72.0859" stroke="black" stroke-width="1.4413" stroke-linecap="round" stroke-linejoin="round"/>
</svg>
