<svg width="120" height="99" viewBox="0 0 120 99" fill="none" xmlns="http://www.w3.org/2000/svg">
<g clip-path="url(#clip0_120_5016)">
<rect x="18.2507" y="72.7891" width="17.996" height="5.1417" fill="white" stroke="black" stroke-width="1.44134"/>
<rect x="7.97266" y="77.9297" width="17.996" height="5.1417" fill="white" stroke="black" stroke-width="1.44134"/>
<rect x="7.97266" y="83.0742" width="17.996" height="5.1417" fill="white" stroke="black" stroke-width="1.44134"/>
<rect x="5.76562" y="88.2113" width="17.996" height="5.1417" fill="#E9E9E9" stroke="black" stroke-width="1.44134"/>
<rect x="7.97266" y="93.3594" width="17.996" height="5.1417" fill="#E9E9E9" stroke="black" stroke-width="1.44134"/>
<rect x="23.7656" y="77.9297" width="17.996" height="5.1417" fill="#E9E9E9" stroke="black" stroke-width="1.44134"/>
<rect x="25.9644" y="83.0739" width="17.996" height="5.1417" fill="#E9E9E9" stroke="black" stroke-width="1.44134"/>
<rect x="23.7656" y="88.2109" width="17.996" height="5.1417" fill="#E9E9E9" stroke="black" stroke-width="1.44134"/>
<rect x="25.9644" y="93.3586" width="17.996" height="5.1417" fill="#E9E9E9" stroke="black" stroke-width="1.44134"/>
<path d="M59.0933 41.2982C56.6197 41.1759 54.307 40.4279 52.5857 39.2129C50.7009 37.8824 49.7246 36.1416 49.7246 34.406V31.965C52.1981 32.0873 54.5109 32.8352 56.2322 34.0503C58.117 35.3807 59.0933 37.1216 59.0933 38.8572V41.2982Z" fill="#E9E9E9" stroke="black" stroke-width="1.44134" stroke-miterlimit="10"/>
<path d="M64.114 33.3914C63.1599 34.1672 61.8971 34.6664 60.5332 34.7974V32.134C60.5332 30.9283 61.1211 29.7331 62.2373 28.8255C63.1913 28.0497 64.4541 27.5504 65.8181 27.4194V30.0829C65.8181 31.2886 65.2301 32.4838 64.114 33.3914Z" fill="black" stroke="black" stroke-width="1.44134" stroke-miterlimit="10"/>
<path d="M59.0977 12.9727V47.5648" stroke="black" stroke-width="1.44134"/>
<circle cx="58.9731" cy="11.4106" r="10.6899" fill="#FFCC00" stroke="black" stroke-width="1.44134"/>
<path d="M58.9722 5.81335V7.36181" stroke="black" stroke-width="1.44134" stroke-linecap="round" stroke-linejoin="round"/>
<path d="M58.9727 15.1024V16.6509" stroke="black" stroke-width="1.44134" stroke-linecap="round" stroke-linejoin="round"/>
<path d="M56.6419 15.1032H60.128C60.6416 15.1032 61.1342 14.8993 61.4975 14.5363C61.8607 14.1733 62.0647 13.681 62.0647 13.1677C62.0647 12.6543 61.8607 12.162 61.4975 11.799C61.1342 11.436 60.6416 11.2321 60.128 11.2321H57.8039C57.2903 11.2321 56.7976 11.0282 56.4344 10.6652C56.0712 10.3022 55.8672 9.80988 55.8672 9.29653C55.8672 8.78319 56.0712 8.29087 56.4344 7.92788C56.7976 7.56489 57.2903 7.36096 57.8039 7.36096H61.29" stroke="black" stroke-width="1.44134" stroke-linecap="round" stroke-linejoin="round"/>
<path d="M80.5408 59.9964C81.0776 60.7853 81.9699 61.2574 82.924 61.2574H90.1367C91.0908 61.2574 91.9831 60.7853 92.5199 59.9964L95.5882 55.4875C96.5592 54.0606 95.5372 52.1289 93.8113 52.1289H92.4707C92.024 52.1289 91.6619 52.491 91.6619 52.9377V52.9377C91.6619 53.5142 91.0759 53.9056 90.5434 53.6849L87.8056 52.5501C87.1527 52.2794 86.4214 52.2668 85.7595 52.5148L82.5158 53.7301C81.9753 53.9326 81.3988 53.533 81.3988 52.9558V52.9558C81.3988 52.4991 81.0287 52.1289 80.572 52.1289H79.2495C77.5235 52.1289 76.5015 54.0606 77.4725 55.4875L80.5408 59.9964Z" fill="#E9E9E9" stroke="black" stroke-width="1.44134"/>
<path d="M68.9434 78.0753L68.9434 89.5614C68.9434 99.0057 76.5995 106.662 86.0438 106.662L88.8374 106.662C98.2817 106.662 105.938 99.0057 105.938 89.5614L105.938 78.0753C105.938 67.8596 97.6563 59.5781 87.4406 59.5781C77.2249 59.5781 68.9434 67.8595 68.9434 78.0753Z" fill="white" stroke="black" stroke-width="1.44134"/>
<path d="M69.6641 89.5387C69.6641 98.5966 75.5383 105.939 82.7846 105.939H92.0966C99.3428 105.939 105.217 98.5966 105.217 89.5387V87.5628C103.757 73.5339 94.161 62.6992 82.54 62.6992C81.2352 62.6992 79.9558 62.8358 78.7107 63.0982C73.3101 66.9113 69.6641 74.1531 69.6641 82.4593V89.5387Z" fill="#E9E9E9"/>
<path d="M86.792 74.2305V75.9449" stroke="black" stroke-width="1.44134" stroke-linecap="round" stroke-linejoin="round"/>
<path d="M86.792 84.5153V86.2297" stroke="black" stroke-width="1.44134" stroke-linecap="round" stroke-linejoin="round"/>
<path d="M84.2132 84.5185H88.073C88.6417 84.5185 89.1871 84.2927 89.5893 83.8908C89.9914 83.4889 90.2173 82.9438 90.2173 82.3754C90.2173 81.8071 89.9914 81.262 89.5893 80.8601C89.1871 80.4582 88.6417 80.2324 88.073 80.2324H85.4998C84.9311 80.2324 84.3857 80.0066 83.9835 79.6047C83.5814 79.2028 83.3555 78.6577 83.3555 78.0893C83.3555 77.521 83.5814 76.9759 83.9835 76.574C84.3857 76.1721 84.9311 75.9463 85.4998 75.9463H89.3596" stroke="black" stroke-width="1.44134" stroke-linecap="round" stroke-linejoin="round"/>
<rect x="77.1113" y="58.373" width="19.6983" height="2.88268" rx="1.44134" fill="black" stroke="black" stroke-width="1.44134"/>
<rect x="93.9224" y="83.1133" width="17.996" height="5.1417" fill="white" stroke="black" stroke-width="1.44134"/>
<rect x="91.7617" y="88.2063" width="17.996" height="5.1417" fill="#E9E9E9" stroke="black" stroke-width="1.44134"/>
<rect x="93.9219" y="93.3555" width="17.996" height="5.1417" fill="#E9E9E9" stroke="black" stroke-width="1.44134"/>
<path d="M51.9025 51.5917C52.4502 52.2347 53.2524 52.6051 54.097 52.6051H63.6059C64.4505 52.6051 65.2526 52.2347 65.8003 51.5917L68.2559 48.709C69.8503 46.8374 68.5202 43.957 66.0615 43.957H65.3624C65.0804 43.957 64.7999 43.9984 64.5299 44.0798L59.6839 45.5415C59.141 45.7053 58.5619 45.7053 58.019 45.5415L53.1729 44.0798C52.903 43.9984 52.6225 43.957 52.3405 43.957H51.6413C49.1827 43.957 47.8526 46.8374 49.4469 48.709L51.9025 51.5917Z" fill="white" stroke="black" stroke-width="1.44134"/>
<path d="M33.3379 86.9471L33.3379 78.0919C33.3379 63.936 44.8135 52.4603 58.9695 52.4603C73.1254 52.4603 84.6011 63.936 84.6011 78.092L84.6011 86.9472C84.6011 97.0374 76.4213 105.217 66.331 105.217L51.6079 105.217C41.5176 105.217 33.3379 97.0374 33.3379 86.9471Z" fill="white" stroke="black" stroke-width="1.44134"/>
<path d="M82.8737 93.0592C80.9656 93.3985 79.0009 93.5755 76.9945 93.5755C58.6816 93.5755 43.8361 78.8234 43.8361 60.6258C43.8361 59.7856 43.8677 58.9527 43.9299 58.1283C37.8206 62.6824 33.8682 69.9382 33.8682 78.1114L33.8682 86.5004C33.8682 96.4366 41.974 104.491 51.9731 104.491H66.0095C73.6796 104.491 80.2357 99.7518 82.8737 93.0592Z" fill="#E9E9E9"/>
<rect x="48.2793" y="51.166" width="21.1396" height="3.36313" rx="1.68156" fill="black" stroke="black" stroke-width="1.44134"/>
<circle cx="36.362" cy="89.9323" r="12.0964" fill="white"/>
<circle cx="36.362" cy="89.9323" r="11.3757" fill="white" stroke="black" stroke-width="1.44134"/>
<circle cx="36.2934" cy="89.8638" r="8.66057" fill="#E9E9E9"/>
<path d="M36.3945 85.0586V86.4181" stroke="black" stroke-width="1.28716" stroke-linecap="round" stroke-linejoin="round"/>
<path d="M36.3945 93.2109V94.5704" stroke="black" stroke-width="1.28716" stroke-linecap="round" stroke-linejoin="round"/>
<path d="M34.352 93.2157H37.4127C37.8636 93.2157 38.2961 93.0367 38.615 92.718C38.9339 92.3993 39.113 91.967 39.113 91.5163C39.113 91.0657 38.9339 90.6334 38.615 90.3147C38.2961 89.996 37.8636 89.817 37.4127 89.817H35.3722C34.9213 89.817 34.4888 89.638 34.1699 89.3193C33.851 89.0006 33.6719 88.5684 33.6719 88.1177C33.6719 87.667 33.851 87.2347 34.1699 86.9161C34.4888 86.5974 34.9213 86.4183 35.3722 86.4183H38.4329" stroke="black" stroke-width="1.28716" stroke-linecap="round" stroke-linejoin="round"/>
<path d="M0 98.4722L119.706 98.4722" stroke="black" stroke-width="1.44134" stroke-linecap="round"/>
</g>
<defs>
<clipPath id="clip0_120_5016">
<rect width="120" height="98.7342" fill="white"/>
</clipPath>
</defs>
</svg>
